# xmcd CD database file
#
# Track frame offsets:
#	150
#	14807
#	37860
#	62954
#	78755
#	95518
#	113559
#	140734
#	158357
#	180100
#	200592
#	243004
#	262838
#	277702
#
# Disc length: 3865 seconds
#
# Revision: 0
# Processed by: cddbd v1.5.2PL0 Copyright (c) Steve Scherf et al.
# Submitted via: CDex 1.70beta2
#
DISCID=a40f170e
DTITLE=Steve Adams and Vinny Golia - Circular Logic (Music For Woodwinds)
DYEAR=1998
DGENRE=Jazz
TTITLE0=Phonation
TTITLE1=Not Quite (What You Thought)
TTITLE2=Caucus 1
TTITLE3=5a.m.
TTITLE4=Into Thick Air
TTITLE5=Caucus 2
TTITLE6=Circular Logic
TTITLE7=Diatribe, Part 4
TTITLE8=Maybe It's the Light
TTITLE9=Indeteminate Duo 2
TTITLE10=In Ludwig's House
TTITLE11=Glue
TTITLE12=Indeterminate Duo 1
TTITLE13=Symbolic Logic
EXTD=YEAR: 1998
EXTT0=
EXTT1=
EXTT2=
EXTT3=
EXTT4=
EXTT5=
EXTT6=
EXTT7=
EXTT8=
EXTT9=
EXTT10=
EXTT11=
EXTT12=
EXTT13=
PLAYORDER=
